<?xml version='1.0' encoding='UTF-8'?>
<svg width="156mm" height="156mm" version="1.1" viewBox="0 0 156 156" fill_color="black" back_color="white" xmlns="http://www.w3.org/2000/svg"><path d="M9.6,9.6H12V12H9.6zM12,9.6H14.4V12H12zM14.4,9.6H16.8V12H14.4zM16.8,9.6H19.2V12H16.8zM19.2,9.6H21.6V12H19.2zM21.6,9.6H24V12H21.6zM24,9.6H26.4V12H24zM28.8,9.6H31.2V12H28.8zM31.2,9.6H33.6V12H31.2zM36,9.6H38.4V12H36zM43.2,9.6H45.6V12H43.2zM45.6,9.6H48V12H45.6zM62.4,9.6H64.8V12H62.4zM64.8,9.6H67.2V12H64.8zM67.2,9.6H69.6V12H67.2zM74.4,9.6H76.8V12H74.4zM76.8,9.6H79.2V12H76.8zM79.2,9.6H81.6V12H79.2zM81.6,9.6H84V12H81.6zM98.4,9.6H100.8V12H98.4zM103.2,9.6H105.6V12H103.2zM105.6,9.6H108V12H105.6zM108,9.6H110.4V12H108zM110.4,9.6H112.8V12H110.4zM115.2,9.6H117.6V12H115.2zM117.6,9.6H120V12H117.6zM120,9.6H122.4V12H120zM122.4,9.6H124.8V12H122.4zM129.6,9.6H132V12H129.6zM132,9.6H134.4V12H132zM134.4,9.6H136.8V12H134.4zM136.8,9.6H139.2V12H136.8zM139.2,9.6H141.6V12H139.2zM141.6,9.6H144V12H141.6zM144,9.6H146.4V12H144zM9.6,12H12V14.4H9.6zM24,12H26.4V14.4H24zM28.8,12H31.2V14.4H28.8zM31.2,12H33.6V14.4H31.2zM36,12H38.4V14.4H36zM38.4,12H40.8V14.4H38.4zM43.2,12H45.6V14.4H43.2zM45.6,12H48V14.4H45.6zM48,12H50.4V14.4H48zM50.4,12H52.8V14.4H50.4zM52.8,12H55.2V14.4H52.8zM62.4,12H64.8V14.4H62.4zM64.8,12H67.2V14.4H64.8zM67.2,12H69.6V14.4H67.2zM69.6,12H72V14.4H69.6zM72,12H74.4V14.4H72zM74.4,12H76.8V14.4H74.4zM76.8,12H79.2V14.4H76.8zM79.2,12H81.6V14.4H79.2zM81.6,12H84V14.4H81.6zM84,12H86.4V14.4H84zM96,12H98.4V14.4H96zM100.8,12H103.2V14.4H100.8zM105.6,12H108V14.4H105.6zM112.8,12H115.2V14.4H112.8zM117.6,12H120V14.4H117.6zM122.4,12H124.8V14.4H122.4zM129.6,12H132V14.4H129.6zM144,12H146.4V14.4H144zM9.6,14.4H12V16.8H9.6zM14.4,14.4H16.8V16.8H14.4zM16.8,14.4H19.2V16.8H16.8zM19.2,14.4H21.6V16.8H19.2zM24,14.4H26.4V16.8H24zM28.8,14.4H31.2V16.8H28.8zM31.2,14.4H33.6V16.8H31.2zM36,14.4H38.4V16.8H36zM38.4,14.4H40.8V16.8H38.4zM45.6,14.4H48V16.8H45.6zM48,14.4H50.4V16.8H48zM55.2,14.4H57.6V16.8H55.2zM57.6,14.4H60V16.8H57.6zM60,14.4H62.4V16.8H60zM69.6,14.4H72V16.8H69.6zM72,14.4H74.4V16.8H72zM79.2,14.4H81.6V16.8H79.2zM81.6,14.4H84V16.8H81.6zM88.8,14.4H91.2V16.8H88.8zM93.6,14.4H96V16.8H93.6zM98.4,14.4H100.8V16.8H98.4zM100.8,14.4H103.2V16.8H100.8zM103.2,14.4H105.6V16.8H103.2zM105.6,14.4H108V16.8H105.6zM108,14.4H110.4V16.8H108zM110.4,14.4H112.8V16.8H110.4zM112.8,14.4H115.2V16.8H112.8zM115.2,14.4H117.6V16.8H115.2zM117.6,14.4H120V16.8H117.6zM120,14.4H122.4V16.8H120zM122.4,14.4H124.8V16.8H122.4zM129.6,14.4H132V16.8H129.6zM134.4,14.4H136.8V16.8H134.4zM136.8,14.4H139.2V16.8H136.8zM139.2,14.4H141.6V16.8H139.2zM144,14.4H146.4V16.8H144zM9.6,16.8H12V19.2H9.6zM14.4,16.8H16.8V19.2H14.4zM16.8,16.8H19.2V19.2H16.8zM19.2,16.8H21.6V19.2H19.2zM24,16.8H26.4V19.2H24zM31.2,16.8H33.6V19.2H31.2zM33.6,16.8H36V19.2H33.6zM40.8,16.8H43.2V19.2H40.8zM43.2,16.8H45.6V19.2H43.2zM50.4,16.8H52.8V19.2H50.4zM55.2,16.8H57.6V19.2H55.2zM57.6,16.8H60V19.2H57.6zM72,16.8H74.4V19.2H72zM74.4,16.8H76.8V19.2H74.4zM86.4,16.8H88.8V19.2H86.4zM91.2,16.8H93.6V19.2H91.2zM98.4,16.8H100.8V19.2H98.4zM100.8,16.8H103.2V19.2H100.8zM108,16.8H110.4V19.2H108zM110.4,16.8H112.8V19.2H110.4zM112.8,16.8H115.2V19.2H112.8zM117.6,16.8H120V19.2H117.6zM122.4,16.8H124.8V19.2H122.4zM129.6,16.8H132V19.2H129.6zM134.4,16.8H136.8V19.2H134.4zM136.8,16.8H139.2V19.2H136.8zM139.2,16.8H141.6V19.2H139.2zM144,16.8H146.4V19.2H144zM9.6,19.2H12V21.6H9.6zM14.4,19.2H16.8V21.6H14.4zM16.8,19.2H19.2V21.6H16.8zM19.2,19.2H21.6V21.6H19.2zM24,19.2H26.4V21.6H24zM31.2,19.2H33.6V21.6H31.2zM33.6,19.2H36V21.6H33.6zM38.4,19.2H40.8V21.6H38.4zM50.4,19.2H52.8V21.6H50.4zM55.2,19.2H57.6V21.6H55.2zM62.4,19.2H64.8V21.6H62.4zM67.2,19.2H69.6V21.6H67.2zM72,19.2H74.4V21.6H72zM74.4,19.2H76.8V21.6H74.4zM76.8,19.2H79.2V21.6H76.8zM79.2,19.2H81.6V21.6H79.2zM81.6,19.2H84V21.6H81.6zM86.4,19.2H88.8V21.6H86.4zM88.8,19.2H91.2V21.6H88.8zM93.6,19.2H96V21.6H93.6zM96,19.2H98.4V21.6H96zM98.4,19.2H100.8V21.6H98.4zM105.6,19.2H108V21.6H105.6zM108,19.2H110.4V21.6H108zM110.4,19.2H112.8V21.6H110.4zM112.8,19.2H115.2V21.6H112.8zM115.2,19.2H117.6V21.6H115.2zM122.4,19.2H124.8V21.6H122.4zM129.6,19.2H132V21.6H129.6zM134.4,19.2H136.8V21.6H134.4zM136.8,19.2H139.2V21.6H136.8zM139.2,19.2H141.6V21.6H139.2zM144,19.2H146.4V21.6H144zM9.6,21.6H12V24H9.6zM24,21.6H26.4V24H24zM28.8,21.6H31.2V24H28.8zM31.2,21.6H33.6V24H31.2zM38.4,21.6H40.8V24H38.4zM40.8,21.6H43.2V24H40.8zM43.2,21.6H45.6V24H43.2zM45.6,21.6H48V24H45.6zM57.6,21.6H60V24H57.6zM60,21.6H62.4V24H60zM62.4,21.6H64.8V24H62.4zM67.2,21.6H69.6V24H67.2zM72,21.6H74.4V24H72zM81.6,21.6H84V24H81.6zM84,21.6H86.4V24H84zM88.8,21.6H91.2V24H88.8zM96,21.6H98.4V24H96zM100.8,21.6H103.2V24H100.8zM105.6,21.6H108V24H105.6zM108,21.6H110.4V24H108zM112.8,21.6H115.2V24H112.8zM115.2,21.6H117.6V24H115.2zM117.6,21.6H120V24H117.6zM120,21.6H122.4V24H120zM129.6,21.6H132V24H129.6zM144,21.6H146.4V24H144zM9.6,24H12V26.4H9.6zM12,24H14.4V26.4H12zM14.4,24H16.8V26.4H14.4zM16.8,24H19.2V26.4H16.8zM19.2,24H21.6V26.4H19.2zM21.6,24H24V26.4H21.6zM24,24H26.4V26.4H24zM28.8,24H31.2V26.4H28.8zM33.6,24H36V26.4H33.6zM38.4,24H40.8V26.4H38.4zM43.2,24H45.6V26.4H43.2zM48,24H50.4V26.4H48zM52.8,24H55.2V26.4H52.8zM57.6,24H60V26.4H57.6zM62.4,24H64.8V26.4H62.4zM67.2,24H69.6V26.4H67.2zM72,24H74.4V26.4H72zM76.8,24H79.2V26.4H76.8zM81.6,24H84V26.4H81.6zM86.4,24H88.8V26.4H86.4zM91.2,24H93.6V26.4H91.2zM96,24H98.4V26.4H96zM100.8,24H103.2V26.4H100.8zM105.6,24H108V26.4H105.6zM110.4,24H112.8V26.4H110.4zM115.2,24H117.6V26.4H115.2zM120,24H122.4V26.4H120zM124.8,24H127.2V26.4H124.8zM129.6,24H132V26.4H129.6zM132,24H134.4V26.4H132zM134.4,24H136.8V26.4H134.4zM136.8,24H139.2V26.4H136.8zM139.2,24H141.6V26.4H139.2zM141.6,24H144V26.4H141.6zM144,24H146.4V26.4H144zM28.8,26.4H31.2V28.8H28.8zM33.6,26.4H36V28.8H33.6zM36,26.4H38.4V28.8H36zM38.4,26.4H40.8V28.8H38.4zM45.6,26.4H48V28.8H45.6zM52.8,26.4H55.2V28.8H52.8zM55.2,26.4H57.6V28.8H55.2zM57.6,26.4H60V28.8H57.6zM60,26.4H62.4V28.8H60zM64.8,26.4H67.2V28.8H64.8zM69.6,26.4H72V28.8H69.6zM72,26.4H74.4V28.8H72zM81.6,26.4H84V28.8H81.6zM84,26.4H86.4V28.8H84zM86.4,26.4H88.8V28.8H86.4zM91.2,26.4H93.6V28.8H91.2zM93.6,26.4H96V28.8H93.6zM98.4,26.4H100.8V28.8H98.4zM100.8,26.4H103.2V28.8H100.8zM103.2,26.4H105.6V28.8H103.2zM105.6,26.4H108V28.8H105.6zM108,26.4H110.4V28.8H108zM112.8,26.4H115.2V28.8H112.8zM115.2,26.4H117.6V28.8H115.2zM117.6,26.4H120V28.8H117.6zM14.4,28.8H16.8V31.2H14.4zM16.8,28.8H19.2V31.2H16.8zM19.2,28.8H21.6V31.2H19.2zM24,28.8H26.4V31.2H24zM28.8,28.8H31.2V31.2H28.8zM31.2,28.8H33.6V31.2H31.2zM36,28.8H38.4V31.2H36zM38.4,28.8H40.8V31.2H38.4zM45.6,28.8H48V31.2H45.6zM48,28.8H50.4V31.2H48zM50.4,28.8H52.8V31.2H50.4zM52.8,28.8H55.2V31.2H52.8zM55.2,28.8H57.6V31.2H55.2zM57.6,28.8H60V31.2H57.6zM60,28.8H62.4V31.2H60zM62.4,28.8H64.8V31.2H62.4zM67.2,28.8H69.6V31.2H67.2zM72,28.8H74.4V31.2H72zM74.4,28.8H76.8V31.2H74.4zM76.8,28.8H79.2V31.2H76.8zM79.2,28.8H81.6V31.2H79.2zM81.6,28.8H84V31.2H81.6zM96,28.8H98.4V31.2H96zM100.8,28.8H103.2V31.2H100.8zM108,28.8H110.4V31.2H108zM110.4,28.8H112.8V31.2H110.4zM117.6,28.8H120V31.2H117.6zM120,28.8H122.4V31.2H120zM122.4,28.8H124.8V31.2H122.4zM127.2,28.8H129.6V31.2H127.2zM129.6,28.8H132V31.2H129.6zM132,28.8H134.4V31.2H132zM139.2,28.8H141.6V31.2H139.2zM141.6,28.8H144V31.2H141.6zM144,28.8H146.4V31.2H144zM14.4,31.2H16.8V33.6H14.4zM16.8,31.2H19.2V33.6H16.8zM19.2,31.2H21.6V33.6H19.2zM26.4,31.2H28.8V33.6H26.4zM33.6,31.2H36V33.6H33.6zM40.8,31.2H43.2V33.6H40.8zM45.6,31.2H48V33.6H45.6zM52.8,31.2H55.2V33.6H52.8zM55.2,31.2H57.6V33.6H55.2zM60,31.2H62.4V33.6H60zM64.8,31.2H67.2V33.6H64.8zM81.6,31.2H84V33.6H81.6zM86.4,31.2H88.8V33.6H86.4zM96,31.2H98.4V33.6H96zM98.4,31.2H100.8V33.6H98.4zM100.8,31.2H103.2V33.6H100.8zM108,31.2H110.4V33.6H108zM110.4,31.2H112.8V33.6H110.4zM115.2,31.2H117.6V33.6H115.2zM124.8,31.2H127.2V33.6H124.8zM127.2,31.2H129.6V33.6H127.2zM132,31.2H134.4V33.6H132zM136.8,31.2H139.2V33.6H136.8zM139.2,31.2H141.6V33.6H139.2zM144,31.2H146.4V33.6H144zM16.8,33.6H19.2V36H16.8zM19.2,33.6H21.6V36H19.2zM21.6,33.6H24V36H21.6zM24,33.6H26.4V36H24zM26.4,33.6H28.8V36H26.4zM28.8,33.6H31.2V36H28.8zM36,33.6H38.4V36H36zM43.2,33.6H45.6V36H43.2zM52.8,33.6H55.2V36H52.8zM55.2,33.6H57.6V36H55.2zM67.2,33.6H69.6V36H67.2zM76.8,33.6H79.2V36H76.8zM79.2,33.6H81.6V36H79.2zM81.6,33.6H84V36H81.6zM84,33.6H86.4V36H84zM91.2,33.6H93.6V36H91.2zM108,33.6H110.4V36H108zM110.4,33.6H112.8V36H110.4zM112.8,33.6H115.2V36H112.8zM117.6,33.6H120V36H117.6zM120,33.6H122.4V36H120zM127.2,33.6H129.6V36H127.2zM129.6,33.6H132V36H129.6zM132,33.6H134.4V36H132zM134.4,33.6H136.8V36H134.4zM136.8,33.6H139.2V36H136.8zM139.2,33.6H141.6V36H139.2zM141.6,33.6H144V36H141.6zM9.6,36H12V38.4H9.6zM12,36H14.4V38.4H12zM21.6,36H24V38.4H21.6zM26.4,36H28.8V38.4H26.4zM38.4,36H40.8V38.4H38.4zM43.2,36H45.6V38.4H43.2zM52.8,36H55.2V38.4H52.8zM55.2,36H57.6V38.4H55.2zM57.6,36H60V38.4H57.6zM60,36H62.4V38.4H60zM62.4,36H64.8V38.4H62.4zM69.6,36H72V38.4H69.6zM76.8,36H79.2V38.4H76.8zM81.6,36H84V38.4H81.6zM86.4,36H88.8V38.4H86.4zM88.8,36H91.2V38.4H88.8zM91.2,36H93.6V38.4H91.2zM93.6,36H96V38.4H93.6zM96,36H98.4V38.4H96zM98.4,36H100.8V38.4H98.4zM100.8,36H103.2V38.4H100.8zM105.6,36H108V38.4H105.6zM108,36H110.4V38.4H108zM110.4,36H112.8V38.4H110.4zM115.2,36H117.6V38.4H115.2zM117.6,36H120V38.4H117.6zM122.4,36H124.8V38.4H122.4zM127.2,36H129.6V38.4H127.2zM134.4,36H136.8V38.4H134.4zM136.8,36H139.2V38.4H136.8zM139.2,36H141.6V38.4H139.2zM144,36H146.4V38.4H144zM14.4,38.4H16.8V40.8H14.4zM19.2,38.4H21.6V40.8H19.2zM24,38.4H26.4V40.8H24zM26.4,38.4H28.8V40.8H26.4zM43.2,38.4H45.6V40.8H43.2zM52.8,38.4H55.2V40.8H52.8zM55.2,38.4H57.6V40.8H55.2zM62.4,38.4H64.8V40.8H62.4zM64.8,38.4H67.2V40.8H64.8zM69.6,38.4H72V40.8H69.6zM74.4,38.4H76.8V40.8H74.4zM76.8,38.4H79.2V40.8H76.8zM88.8,38.4H91.2V40.8H88.8zM93.6,38.4H96V40.8H93.6zM96,38.4H98.4V40.8H96zM100.8,38.4H103.2V40.8H100.8zM103.2,38.4H105.6V40.8H103.2zM108,38.4H110.4V40.8H108zM110.4,38.4H112.8V40.8H110.4zM112.8,38.4H115.2V40.8H112.8zM120,38.4H122.4V40.8H120zM127.2,38.4H129.6V40.8H127.2zM141.6,38.4H144V40.8H141.6zM12,40.8H14.4V43.2H12zM19.2,40.8H21.6V43.2H19.2zM26.4,40.8H28.8V43.2H26.4zM31.2,40.8H33.6V43.2H31.2zM33.6,40.8H36V43.2H33.6zM38.4,40.8H40.8V43.2H38.4zM48,40.8H50.4V43.2H48zM55.2,40.8H57.6V43.2H55.2zM62.4,40.8H64.8V43.2H62.4zM64.8,40.8H67.2V43.2H64.8zM72,40.8H74.4V43.2H72zM74.4,40.8H76.8V43.2H74.4zM79.2,40.8H81.6V43.2H79.2zM86.4,40.8H88.8V43.2H86.4zM88.8,40.8H91.2V43.2H88.8zM91.2,40.8H93.6V43.2H91.2zM93.6,40.8H96V43.2H93.6zM96,40.8H98.4V43.2H96zM98.4,40.8H100.8V43.2H98.4zM108,40.8H110.4V43.2H108zM110.4,40.8H112.8V43.2H110.4zM117.6,40.8H120V43.2H117.6zM122.4,40.8H124.8V43.2H122.4zM124.8,40.8H127.2V43.2H124.8zM127.2,40.8H129.6V43.2H127.2zM132,40.8H134.4V43.2H132zM136.8,40.8H139.2V43.2H136.8zM144,40.8H146.4V43.2H144zM19.2,43.2H21.6V45.6H19.2zM24,43.2H26.4V45.6H24zM26.4,43.2H28.8V45.6H26.4zM36,43.2H38.4V45.6H36zM52.8,43.2H55.2V45.6H52.8zM55.2,43.2H57.6V45.6H55.2zM64.8,43.2H67.2V45.6H64.8zM74.4,43.2H76.8V45.6H74.4zM76.8,43.2H79.2V45.6H76.8zM81.6,43.2H84V45.6H81.6zM86.4,43.2H88.8V45.6H86.4zM91.2,43.2H93.6V45.6H91.2zM93.6,43.2H96V45.6H93.6zM96,43.2H98.4V45.6H96zM98.4,43.2H100.8V45.6H98.4zM100.8,43.2H103.2V45.6H100.8zM108,43.2H110.4V45.6H108zM112.8,43.2H115.2V45.6H112.8zM120,43.2H122.4V45.6H120zM122.4,43.2H124.8V45.6H122.4zM124.8,43.2H127.2V45.6H124.8zM127.2,43.2H129.6V45.6H127.2zM129.6,43.2H132V45.6H129.6zM136.8,43.2H139.2V45.6H136.8zM139.2,43.2H141.6V45.6H139.2zM141.6,43.2H144V45.6H141.6zM14.4,45.6H16.8V48H14.4zM21.6,45.6H24V48H21.6zM28.8,45.6H31.2V48H28.8zM31.2,45.6H33.6V48H31.2zM33.6,45.6H36V48H33.6zM38.4,45.6H40.8V48H38.4zM43.2,45.6H45.6V48H43.2zM48,45.6H50.4V48H48zM52.8,45.6H55.2V48H52.8zM55.2,45.6H57.6V48H55.2zM60,45.6H62.4V48H60zM62.4,45.6H64.8V48H62.4zM67.2,45.6H69.6V48H67.2zM69.6,45.6H72V48H69.6zM76.8,45.6H79.2V48H76.8zM79.2,45.6H81.6V48H79.2zM81.6,45.6H84V48H81.6zM84,45.6H86.4V48H84zM93.6,45.6H96V48H93.6zM98.4,45.6H100.8V48H98.4zM100.8,45.6H103.2V48H100.8zM103.2,45.6H105.6V48H103.2zM105.6,45.6H108V48H105.6zM108,45.6H110.4V48H108zM115.2,45.6H117.6V48H115.2zM120,45.6H122.4V48H120zM129.6,45.6H132V48H129.6zM132,45.6H134.4V48H132zM134.4,45.6H136.8V48H134.4zM136.8,45.6H139.2V48H136.8zM139.2,45.6H141.6V48H139.2zM141.6,45.6H144V48H141.6zM144,45.6H146.4V48H144zM12,48H14.4V50.4H12zM14.4,48H16.8V50.4H14.4zM24,48H26.4V50.4H24zM26.4,48H28.8V50.4H26.4zM28.8,48H31.2V50.4H28.8zM33.6,48H36V50.4H33.6zM48,48H50.4V50.4H48zM67.2,48H69.6V50.4H67.2zM72,48H74.4V50.4H72zM81.6,48H84V50.4H81.6zM84,48H86.4V50.4H84zM86.4,48H88.8V50.4H86.4zM88.8,48H91.2V50.4H88.8zM93.6,48H96V50.4H93.6zM96,48H98.4V50.4H96zM100.8,48H103.2V50.4H100.8zM103.2,48H105.6V50.4H103.2zM110.4,48H112.8V50.4H110.4zM112.8,48H115.2V50.4H112.8zM117.6,48H120V50.4H117.6zM127.2,48H129.6V50.4H127.2zM136.8,48H139.2V50.4H136.8zM141.6,48H144V50.4H141.6zM144,48H146.4V50.4H144zM14.4,50.4H16.8V52.8H14.4zM21.6,50.4H24V52.8H21.6zM28.8,50.4H31.2V52.8H28.8zM38.4,50.4H40.8V52.8H38.4zM45.6,50.4H48V52.8H45.6zM48,50.4H50.4V52.8H48zM50.4,50.4H52.8V52.8H50.4zM60,50.4H62.4V52.8H60zM62.4,50.4H64.8V52.8H62.4zM69.6,50.4H72V52.8H69.6zM76.8,50.4H79.2V52.8H76.8zM84,50.4H86.4V52.8H84zM96,50.4H98.4V52.8H96zM98.4,50.4H100.8V52.8H98.4zM108,50.4H110.4V52.8H108zM110.4,50.4H112.8V52.8H110.4zM112.8,50.4H115.2V52.8H112.8zM124.8,50.4H127.2V52.8H124.8zM127.2,50.4H129.6V52.8H127.2zM136.8,50.4H139.2V52.8H136.8zM144,50.4H146.4V52.8H144zM14.4,52.8H16.8V55.2H14.4zM16.8,52.8H19.2V55.2H16.8zM24,52.8H26.4V55.2H24zM26.4,52.8H28.8V55.2H26.4zM31.2,52.8H33.6V55.2H31.2zM36,52.8H38.4V55.2H36zM38.4,52.8H40.8V55.2H38.4zM43.2,52.8H45.6V55.2H43.2zM50.4,52.8H52.8V55.2H50.4zM62.4,52.8H64.8V55.2H62.4zM67.2,52.8H69.6V55.2H67.2zM72,52.8H74.4V55.2H72zM74.4,52.8H76.8V55.2H74.4zM76.8,52.8H79.2V55.2H76.8zM79.2,52.8H81.6V55.2H79.2zM93.6,52.8H96V55.2H93.6zM100.8,52.8H103.2V55.2H100.8zM117.6,52.8H120V55.2H117.6zM120,52.8H122.4V55.2H120zM122.4,52.8H124.8V55.2H122.4zM124.8,52.8H127.2V55.2H124.8zM129.6,52.8H132V55.2H129.6zM134.4,52.8H136.8V55.2H134.4zM139.2,52.8H141.6V55.2H139.2zM141.6,52.8H144V55.2H141.6zM12,55.2H14.4V57.6H12zM19.2,55.2H21.6V57.6H19.2zM26.4,55.2H28.8V57.6H26.4zM33.6,55.2H36V57.6H33.6zM40.8,55.2H43.2V57.6H40.8zM48,55.2H50.4V57.6H48zM50.4,55.2H52.8V57.6H50.4zM60,55.2H62.4V57.6H60zM62.4,55.2H64.8V57.6H62.4zM74.4,55.2H76.8V57.6H74.4zM76.8,55.2H79.2V57.6H76.8zM81.6,55.2H84V57.6H81.6zM84,55.2H86.4V57.6H84zM86.4,55.2H88.8V57.6H86.4zM91.2,55.2H93.6V57.6H91.2zM96,55.2H98.4V57.6H96zM98.4,55.2H100.8V57.6H98.4zM100.8,55.2H103.2V57.6H100.8zM103.2,55.2H105.6V57.6H103.2zM105.6,55.2H108V57.6H105.6zM108,55.2H110.4V57.6H108zM112.8,55.2H115.2V57.6H112.8zM115.2,55.2H117.6V57.6H115.2zM120,55.2H122.4V57.6H120zM122.4,55.2H124.8V57.6H122.4zM124.8,55.2H127.2V57.6H124.8zM132,55.2H134.4V57.6H132zM134.4,55.2H136.8V57.6H134.4zM136.8,55.2H139.2V57.6H136.8zM139.2,55.2H141.6V57.6H139.2zM141.6,55.2H144V57.6H141.6zM9.6,57.6H12V60H9.6zM21.6,57.6H24V60H21.6zM24,57.6H26.4V60H24zM45.6,57.6H48V60H45.6zM52.8,57.6H55.2V60H52.8zM57.6,57.6H60V60H57.6zM60,57.6H62.4V60H60zM64.8,57.6H67.2V60H64.8zM86.4,57.6H88.8V60H86.4zM96,57.6H98.4V60H96zM98.4,57.6H100.8V60H98.4zM103.2,57.6H105.6V60H103.2zM108,57.6H110.4V60H108zM110.4,57.6H112.8V60H110.4zM112.8,57.6H115.2V60H112.8zM120,57.6H122.4V60H120zM122.4,57.6H124.8V60H122.4zM124.8,57.6H127.2V60H124.8zM144,57.6H146.4V60H144zM9.6,60H12V62.4H9.6zM14.4,60H16.8V62.4H14.4zM16.8,60H19.2V62.4H16.8zM33.6,60H36V62.4H33.6zM36,60H38.4V62.4H36zM40.8,60H43.2V62.4H40.8zM48,60H50.4V62.4H48zM52.8,60H55.2V62.4H52.8zM55.2,60H57.6V62.4H55.2zM64.8,60H67.2V62.4H64.8zM72,60H74.4V62.4H72zM84,60H86.4V62.4H84zM86.4,60H88.8V62.4H86.4zM88.8,60H91.2V62.4H88.8zM98.4,60H100.8V62.4H98.4zM105.6,60H108V62.4H105.6zM108,60H110.4V62.4H108zM110.4,60H112.8V62.4H110.4zM115.2,60H117.6V62.4H115.2zM122.4,60H124.8V62.4H122.4zM124.8,60H127.2V62.4H124.8zM127.2,60H129.6V62.4H127.2zM136.8,60H139.2V62.4H136.8zM141.6,60H144V62.4H141.6zM144,60H146.4V62.4H144zM14.4,62.4H16.8V64.8H14.4zM16.8,62.4H19.2V64.8H16.8zM19.2,62.4H21.6V64.8H19.2zM21.6,62.4H24V64.8H21.6zM24,62.4H26.4V64.8H24zM26.4,62.4H28.8V64.8H26.4zM28.8,62.4H31.2V64.8H28.8zM36,62.4H38.4V64.8H36zM38.4,62.4H40.8V64.8H38.4zM40.8,62.4H43.2V64.8H40.8zM45.6,62.4H48V64.8H45.6zM48,62.4H50.4V64.8H48zM50.4,62.4H52.8V64.8H50.4zM52.8,62.4H55.2V64.8H52.8zM60,62.4H62.4V64.8H60zM62.4,62.4H64.8V64.8H62.4zM67.2,62.4H69.6V64.8H67.2zM69.6,62.4H72V64.8H69.6zM76.8,62.4H79.2V64.8H76.8zM79.2,62.4H81.6V64.8H79.2zM81.6,62.4H84V64.8H81.6zM91.2,62.4H93.6V64.8H91.2zM100.8,62.4H103.2V64.8H100.8zM108,62.4H110.4V64.8H108zM110.4,62.4H112.8V64.8H110.4zM112.8,62.4H115.2V64.8H112.8zM120,62.4H122.4V64.8H120zM122.4,62.4H124.8V64.8H122.4zM124.8,62.4H127.2V64.8H124.8zM127.2,62.4H129.6V64.8H127.2zM129.6,62.4H132V64.8H129.6zM141.6,62.4H144V64.8H141.6zM9.6,64.8H12V67.2H9.6zM16.8,64.8H19.2V67.2H16.8zM21.6,64.8H24V67.2H21.6zM26.4,64.8H28.8V67.2H26.4zM28.8,64.8H31.2V67.2H28.8zM31.2,64.8H33.6V67.2H31.2zM36,64.8H38.4V67.2H36zM38.4,64.8H40.8V67.2H38.4zM40.8,64.8H43.2V67.2H40.8zM43.2,64.8H45.6V67.2H43.2zM45.6,64.8H48V67.2H45.6zM48,64.8H50.4V67.2H48zM50.4,64.8H52.8V67.2H50.4zM52.8,64.8H55.2V67.2H52.8zM64.8,64.8H67.2V67.2H64.8zM74.4,64.8H76.8V67.2H74.4zM76.8,64.8H79.2V67.2H76.8zM86.4,64.8H88.8V67.2H86.4zM88.8,64.8H91.2V67.2H88.8zM91.2,64.8H93.6V67.2H91.2zM93.6,64.8H96V67.2H93.6zM98.4,64.8H100.8V67.2H98.4zM110.4,64.8H112.8V67.2H110.4zM115.2,64.8H117.6V67.2H115.2zM122.4,64.8H124.8V67.2H122.4zM129.6,64.8H132V67.2H129.6zM132,64.8H134.4V67.2H132zM134.4,64.8H136.8V67.2H134.4zM136.8,64.8H139.2V67.2H136.8zM139.2,64.8H141.6V67.2H139.2zM9.6,67.2H12V69.6H9.6zM12,67.2H14.4V69.6H12zM16.8,67.2H19.2V69.6H16.8zM21.6,67.2H24V69.6H21.6zM24,67.2H26.4V69.6H24zM31.2,67.2H33.6V69.6H31.2zM36,67.2H38.4V69.6H36zM38.4,67.2H40.8V69.6H38.4zM45.6,67.2H48V69.6H45.6zM48,67.2H50.4V69.6H48zM50.4,67.2H52.8V69.6H50.4zM52.8,67.2H55.2V69.6H52.8zM55.2,67.2H57.6V69.6H55.2zM57.6,67.2H60V69.6H57.6zM60,67.2H62.4V69.6H60zM64.8,67.2H67.2V69.6H64.8zM72,67.2H74.4V69.6H72zM74.4,67.2H76.8V69.6H74.4zM76.8,67.2H79.2V69.6H76.8zM79.2,67.2H81.6V69.6H79.2zM81.6,67.2H84V69.6H81.6zM86.4,67.2H88.8V69.6H86.4zM88.8,67.2H91.2V69.6H88.8zM103.2,67.2H105.6V69.6H103.2zM108,67.2H110.4V69.6H108zM110.4,67.2H112.8V69.6H110.4zM112.8,67.2H115.2V69.6H112.8zM117.6,67.2H120V69.6H117.6zM120,67.2H122.4V69.6H120zM127.2,67.2H129.6V69.6H127.2zM136.8,67.2H139.2V69.6H136.8zM16.8,69.6H19.2V72H16.8zM19.2,69.6H21.6V72H19.2zM21.6,69.6H24V72H21.6zM26.4,69.6H28.8V72H26.4zM28.8,69.6H31.2V72H28.8zM38.4,69.6H40.8V72H38.4zM43.2,69.6H45.6V72H43.2zM48,69.6H50.4V72H48zM55.2,69.6H57.6V72H55.2zM57.6,69.6H60V72H57.6zM67.2,69.6H69.6V72H67.2zM72,69.6H74.4V72H72zM76.8,69.6H79.2V72H76.8zM84,69.6H86.4V72H84zM86.4,69.6H88.8V72H86.4zM91.2,69.6H93.6V72H91.2zM98.4,69.6H100.8V72H98.4zM110.4,69.6H112.8V72H110.4zM122.4,69.6H124.8V72H122.4zM124.8,69.6H127.2V72H124.8zM127.2,69.6H129.6V72H127.2zM139.2,69.6H141.6V72H139.2zM144,69.6H146.4V72H144zM9.6,72H12V74.4H9.6zM19.2,72H21.6V74.4H19.2zM21.6,72H24V74.4H21.6zM24,72H26.4V74.4H24zM26.4,72H28.8V74.4H26.4zM28.8,72H31.2V74.4H28.8zM31.2,72H33.6V74.4H31.2zM38.4,72H40.8V74.4H38.4zM45.6,72H48V74.4H45.6zM48,72H50.4V74.4H48zM55.2,72H57.6V74.4H55.2zM60,72H62.4V74.4H60zM67.2,72H69.6V74.4H67.2zM72,72H74.4V74.4H72zM74.4,72H76.8V74.4H74.4zM76.8,72H79.2V74.4H76.8zM79.2,72H81.6V74.4H79.2zM81.6,72H84V74.4H81.6zM84,72H86.4V74.4H84zM91.2,72H93.6V74.4H91.2zM100.8,72H103.2V74.4H100.8zM103.2,72H105.6V74.4H103.2zM110.4,72H112.8V74.4H110.4zM112.8,72H115.2V74.4H112.8zM120,72H122.4V74.4H120zM122.4,72H124.8V74.4H122.4zM124.8,72H127.2V74.4H124.8zM127.2,72H129.6V74.4H127.2zM129.6,72H132V74.4H129.6zM132,72H134.4V74.4H132zM134.4,72H136.8V74.4H134.4zM141.6,72H144V74.4H141.6zM9.6,74.4H12V76.8H9.6zM12,74.4H14.4V76.8H12zM14.4,74.4H16.8V76.8H14.4zM19.2,74.4H21.6V76.8H19.2zM28.8,74.4H31.2V76.8H28.8zM33.6,74.4H36V76.8H33.6zM36,74.4H38.4V76.8H36zM38.4,74.4H40.8V76.8H38.4zM43.2,74.4H45.6V76.8H43.2zM45.6,74.4H48V76.8H45.6zM52.8,74.4H55.2V76.8H52.8zM57.6,74.4H60V76.8H57.6zM60,74.4H62.4V76.8H60zM67.2,74.4H69.6V76.8H67.2zM69.6,74.4H72V76.8H69.6zM72,74.4H74.4V76.8H72zM81.6,74.4H84V76.8H81.6zM88.8,74.4H91.2V76.8H88.8zM93.6,74.4H96V76.8H93.6zM103.2,74.4H105.6V76.8H103.2zM105.6,74.4H108V76.8H105.6zM108,74.4H110.4V76.8H108zM110.4,74.4H112.8V76.8H110.4zM112.8,74.4H115.2V76.8H112.8zM115.2,74.4H117.6V76.8H115.2zM120,74.4H122.4V76.8H120zM122.4,74.4H124.8V76.8H122.4zM124.8,74.4H127.2V76.8H124.8zM134.4,74.4H136.8V76.8H134.4zM136.8,74.4H139.2V76.8H136.8zM139.2,74.4H141.6V76.8H139.2zM141.6,74.4H144V76.8H141.6zM9.6,76.8H12V79.2H9.6zM14.4,76.8H16.8V79.2H14.4zM16.8,76.8H19.2V79.2H16.8zM19.2,76.8H21.6V79.2H19.2zM24,76.8H26.4V79.2H24zM28.8,76.8H31.2V79.2H28.8zM33.6,76.8H36V79.2H33.6zM36,76.8H38.4V79.2H36zM45.6,76.8H48V79.2H45.6zM48,76.8H50.4V79.2H48zM50.4,76.8H52.8V79.2H50.4zM52.8,76.8H55.2V79.2H52.8zM55.2,76.8H57.6V79.2H55.2zM64.8,76.8H67.2V79.2H64.8zM72,76.8H74.4V79.2H72zM76.8,76.8H79.2V79.2H76.8zM81.6,76.8H84V79.2H81.6zM88.8,76.8H91.2V79.2H88.8zM93.6,76.8H96V79.2H93.6zM96,76.8H98.4V79.2H96zM98.4,76.8H100.8V79.2H98.4zM100.8,76.8H103.2V79.2H100.8zM108,76.8H110.4V79.2H108zM112.8,76.8H115.2V79.2H112.8zM117.6,76.8H120V79.2H117.6zM120,76.8H122.4V79.2H120zM124.8,76.8H127.2V79.2H124.8zM129.6,76.8H132V79.2H129.6zM134.4,76.8H136.8V79.2H134.4zM141.6,76.8H144V79.2H141.6zM9.6,79.2H12V81.6H9.6zM12,79.2H14.4V81.6H12zM14.4,79.2H16.8V81.6H14.4zM16.8,79.2H19.2V81.6H16.8zM19.2,79.2H21.6V81.6H19.2zM28.8,79.2H31.2V81.6H28.8zM31.2,79.2H33.6V81.6H31.2zM38.4,79.2H40.8V81.6H38.4zM40.8,79.2H43.2V81.6H40.8zM43.2,79.2H45.6V81.6H43.2zM45.6,79.2H48V81.6H45.6zM48,79.2H50.4V81.6H48zM50.4,79.2H52.8V81.6H50.4zM52.8,79.2H55.2V81.6H52.8zM55.2,79.2H57.6V81.6H55.2zM60,79.2H62.4V81.6H60zM62.4,79.2H64.8V81.6H62.4zM64.8,79.2H67.2V81.6H64.8zM67.2,79.2H69.6V81.6H67.2zM72,79.2H74.4V81.6H72zM81.6,79.2H84V81.6H81.6zM84,79.2H86.4V81.6H84zM88.8,79.2H91.2V81.6H88.8zM93.6,79.2H96V81.6H93.6zM98.4,79.2H100.8V81.6H98.4zM105.6,79.2H108V81.6H105.6zM108,79.2H110.4V81.6H108zM110.4,79.2H112.8V81.6H110.4zM112.8,79.2H115.2V81.6H112.8zM115.2,79.2H117.6V81.6H115.2zM124.8,79.2H127.2V81.6H124.8zM134.4,79.2H136.8V81.6H134.4zM136.8,79.2H139.2V81.6H136.8zM144,79.2H146.4V81.6H144zM9.6,81.6H12V84H9.6zM14.4,81.6H16.8V84H14.4zM19.2,81.6H21.6V84H19.2zM21.6,81.6H24V84H21.6zM24,81.6H26.4V84H24zM26.4,81.6H28.8V84H26.4zM28.8,81.6H31.2V84H28.8zM38.4,81.6H40.8V84H38.4zM40.8,81.6H43.2V84H40.8zM43.2,81.6H45.6V84H43.2zM48,81.6H50.4V84H48zM55.2,81.6H57.6V84H55.2zM57.6,81.6H60V84H57.6zM60,81.6H62.4V84H60zM64.8,81.6H67.2V84H64.8zM67.2,81.6H69.6V84H67.2zM72,81.6H74.4V84H72zM74.4,81.6H76.8V84H74.4zM76.8,81.6H79.2V84H76.8zM79.2,81.6H81.6V84H79.2zM81.6,81.6H84V84H81.6zM86.4,81.6H88.8V84H86.4zM96,81.6H98.4V84H96zM100.8,81.6H103.2V84H100.8zM103.2,81.6H105.6V84H103.2zM108,81.6H110.4V84H108zM112.8,81.6H115.2V84H112.8zM115.2,81.6H117.6V84H115.2zM120,81.6H122.4V84H120zM122.4,81.6H124.8V84H122.4zM124.8,81.6H127.2V84H124.8zM127.2,81.6H129.6V84H127.2zM129.6,81.6H132V84H129.6zM132,81.6H134.4V84H132zM134.4,81.6H136.8V84H134.4zM141.6,81.6H144V84H141.6zM19.2,84H21.6V86.4H19.2zM21.6,84H24V86.4H21.6zM26.4,84H28.8V86.4H26.4zM28.8,84H31.2V86.4H28.8zM31.2,84H33.6V86.4H31.2zM33.6,84H36V86.4H33.6zM36,84H38.4V86.4H36zM40.8,84H43.2V86.4H40.8zM43.2,84H45.6V86.4H43.2zM45.6,84H48V86.4H45.6zM50.4,84H52.8V86.4H50.4zM76.8,84H79.2V86.4H76.8zM86.4,84H88.8V86.4H86.4zM91.2,84H93.6V86.4H91.2zM93.6,84H96V86.4H93.6zM96,84H98.4V86.4H96zM103.2,84H105.6V86.4H103.2zM105.6,84H108V86.4H105.6zM110.4,84H112.8V86.4H110.4zM115.2,84H117.6V86.4H115.2zM120,84H122.4V86.4H120zM122.4,84H124.8V86.4H122.4zM129.6,84H132V86.4H129.6zM132,84H134.4V86.4H132zM136.8,84H139.2V86.4H136.8zM139.2,84H141.6V86.4H139.2zM141.6,84H144V86.4H141.6zM144,84H146.4V86.4H144zM14.4,86.4H16.8V88.8H14.4zM16.8,86.4H19.2V88.8H16.8zM24,86.4H26.4V88.8H24zM26.4,86.4H28.8V88.8H26.4zM28.8,86.4H31.2V88.8H28.8zM33.6,86.4H36V88.8H33.6zM36,86.4H38.4V88.8H36zM40.8,86.4H43.2V88.8H40.8zM45.6,86.4H48V88.8H45.6zM50.4,86.4H52.8V88.8H50.4zM52.8,86.4H55.2V88.8H52.8zM55.2,86.4H57.6V88.8H55.2zM57.6,86.4H60V88.8H57.6zM60,86.4H62.4V88.8H60zM62.4,86.4H64.8V88.8H62.4zM69.6,86.4H72V88.8H69.6zM72,86.4H74.4V88.8H72zM74.4,86.4H76.8V88.8H74.4zM76.8,86.4H79.2V88.8H76.8zM79.2,86.4H81.6V88.8H79.2zM86.4,86.4H88.8V88.8H86.4zM98.4,86.4H100.8V88.8H98.4zM108,86.4H110.4V88.8H108zM110.4,86.4H112.8V88.8H110.4zM112.8,86.4H115.2V88.8H112.8zM124.8,86.4H127.2V88.8H124.8zM127.2,86.4H129.6V88.8H127.2zM129.6,86.4H132V88.8H129.6zM134.4,86.4H136.8V88.8H134.4zM141.6,86.4H144V88.8H141.6zM144,86.4H146.4V88.8H144zM9.6,88.8H12V91.2H9.6zM12,88.8H14.4V91.2H12zM16.8,88.8H19.2V91.2H16.8zM26.4,88.8H28.8V91.2H26.4zM28.8,88.8H31.2V91.2H28.8zM36,88.8H38.4V91.2H36zM38.4,88.8H40.8V91.2H38.4zM45.6,88.8H48V91.2H45.6zM48,88.8H50.4V91.2H48zM55.2,88.8H57.6V91.2H55.2zM57.6,88.8H60V91.2H57.6zM60,88.8H62.4V91.2H60zM72,88.8H74.4V91.2H72zM74.4,88.8H76.8V91.2H74.4zM76.8,88.8H79.2V91.2H76.8zM79.2,88.8H81.6V91.2H79.2zM86.4,88.8H88.8V91.2H86.4zM88.8,88.8H91.2V91.2H88.8zM91.2,88.8H93.6V91.2H91.2zM93.6,88.8H96V91.2H93.6zM96,88.8H98.4V91.2H96zM98.4,88.8H100.8V91.2H98.4zM108,88.8H110.4V91.2H108zM110.4,88.8H112.8V91.2H110.4zM115.2,88.8H117.6V91.2H115.2zM124.8,88.8H127.2V91.2H124.8zM129.6,88.8H132V91.2H129.6zM136.8,88.8H139.2V91.2H136.8zM144,88.8H146.4V91.2H144zM9.6,91.2H12V93.6H9.6zM12,91.2H14.4V93.6H12zM14.4,91.2H16.8V93.6H14.4zM16.8,91.2H19.2V93.6H16.8zM24,91.2H26.4V93.6H24zM28.8,91.2H31.2V93.6H28.8zM31.2,91.2H33.6V93.6H31.2zM33.6,91.2H36V93.6H33.6zM36,91.2H38.4V93.6H36zM40.8,91.2H43.2V93.6H40.8zM43.2,91.2H45.6V93.6H43.2zM48,91.2H50.4V93.6H48zM50.4,91.2H52.8V93.6H50.4zM57.6,91.2H60V93.6H57.6zM60,91.2H62.4V93.6H60zM69.6,91.2H72V93.6H69.6zM72,91.2H74.4V93.6H72zM79.2,91.2H81.6V93.6H79.2zM84,91.2H86.4V93.6H84zM88.8,91.2H91.2V93.6H88.8zM91.2,91.2H93.6V93.6H91.2zM96,91.2H98.4V93.6H96zM98.4,91.2H100.8V93.6H98.4zM103.2,91.2H105.6V93.6H103.2zM105.6,91.2H108V93.6H105.6zM117.6,91.2H120V93.6H117.6zM120,91.2H122.4V93.6H120zM127.2,91.2H129.6V93.6H127.2zM136.8,91.2H139.2V93.6H136.8zM139.2,91.2H141.6V93.6H139.2zM141.6,91.2H144V93.6H141.6zM14.4,93.6H16.8V96H14.4zM16.8,93.6H19.2V96H16.8zM26.4,93.6H28.8V96H26.4zM28.8,93.6H31.2V96H28.8zM31.2,93.6H33.6V96H31.2zM40.8,93.6H43.2V96H40.8zM48,93.6H50.4V96H48zM50.4,93.6H52.8V96H50.4zM52.8,93.6H55.2V96H52.8zM55.2,93.6H57.6V96H55.2zM60,93.6H62.4V96H60zM64.8,93.6H67.2V96H64.8zM67.2,93.6H69.6V96H67.2zM69.6,93.6H72V96H69.6zM72,93.6H74.4V96H72zM74.4,93.6H76.8V96H74.4zM76.8,93.6H79.2V96H76.8zM81.6,93.6H84V96H81.6zM84,93.6H86.4V96H84zM86.4,93.6H88.8V96H86.4zM98.4,93.6H100.8V96H98.4zM100.8,93.6H103.2V96H100.8zM110.4,93.6H112.8V96H110.4zM115.2,93.6H117.6V96H115.2zM122.4,93.6H124.8V96H122.4zM129.6,93.6H132V96H129.6zM134.4,93.6H136.8V96H134.4zM139.2,93.6H141.6V96H139.2zM141.6,93.6H144V96H141.6zM12,96H14.4V98.4H12zM14.4,96H16.8V98.4H14.4zM16.8,96H19.2V98.4H16.8zM19.2,96H21.6V98.4H19.2zM21.6,96H24V98.4H21.6zM24,96H26.4V98.4H24zM40.8,96H43.2V98.4H40.8zM45.6,96H48V98.4H45.6zM48,96H50.4V98.4H48zM50.4,96H52.8V98.4H50.4zM57.6,96H60V98.4H57.6zM60,96H62.4V98.4H60zM64.8,96H67.2V98.4H64.8zM79.2,96H81.6V98.4H79.2zM86.4,96H88.8V98.4H86.4zM91.2,96H93.6V98.4H91.2zM96,96H98.4V98.4H96zM100.8,96H103.2V98.4H100.8zM117.6,96H120V98.4H117.6zM120,96H122.4V98.4H120zM132,96H134.4V98.4H132zM134.4,96H136.8V98.4H134.4zM136.8,96H139.2V98.4H136.8zM12,98.4H14.4V100.8H12zM26.4,98.4H28.8V100.8H26.4zM31.2,98.4H33.6V100.8H31.2zM33.6,98.4H36V100.8H33.6zM38.4,98.4H40.8V100.8H38.4zM40.8,98.4H43.2V100.8H40.8zM43.2,98.4H45.6V100.8H43.2zM50.4,98.4H52.8V100.8H50.4zM52.8,98.4H55.2V100.8H52.8zM55.2,98.4H57.6V100.8H55.2zM57.6,98.4H60V100.8H57.6zM62.4,98.4H64.8V100.8H62.4zM64.8,98.4H67.2V100.8H64.8zM67.2,98.4H69.6V100.8H67.2zM72,98.4H74.4V100.8H72zM74.4,98.4H76.8V100.8H74.4zM76.8,98.4H79.2V100.8H76.8zM84,98.4H86.4V100.8H84zM88.8,98.4H91.2V100.8H88.8zM91.2,98.4H93.6V100.8H91.2zM96,98.4H98.4V100.8H96zM98.4,98.4H100.8V100.8H98.4zM108,98.4H110.4V100.8H108zM110.4,98.4H112.8V100.8H110.4zM112.8,98.4H115.2V100.8H112.8zM115.2,98.4H117.6V100.8H115.2zM124.8,98.4H127.2V100.8H124.8zM127.2,98.4H129.6V100.8H127.2zM129.6,98.4H132V100.8H129.6zM136.8,98.4H139.2V100.8H136.8zM139.2,98.4H141.6V100.8H139.2zM141.6,98.4H144V100.8H141.6zM144,98.4H146.4V100.8H144zM9.6,100.8H12V103.2H9.6zM12,100.8H14.4V103.2H12zM14.4,100.8H16.8V103.2H14.4zM19.2,100.8H21.6V103.2H19.2zM24,100.8H26.4V103.2H24zM28.8,100.8H31.2V103.2H28.8zM33.6,100.8H36V103.2H33.6zM40.8,100.8H43.2V103.2H40.8zM43.2,100.8H45.6V103.2H43.2zM45.6,100.8H48V103.2H45.6zM48,100.8H50.4V103.2H48zM52.8,100.8H55.2V103.2H52.8zM62.4,100.8H64.8V103.2H62.4zM64.8,100.8H67.2V103.2H64.8zM69.6,100.8H72V103.2H69.6zM72,100.8H74.4V103.2H72zM76.8,100.8H79.2V103.2H76.8zM84,100.8H86.4V103.2H84zM91.2,100.8H93.6V103.2H91.2zM93.6,100.8H96V103.2H93.6zM98.4,100.8H100.8V103.2H98.4zM100.8,100.8H103.2V103.2H100.8zM105.6,100.8H108V103.2H105.6zM112.8,100.8H115.2V103.2H112.8zM115.2,100.8H117.6V103.2H115.2zM120,100.8H122.4V103.2H120zM124.8,100.8H127.2V103.2H124.8zM127.2,100.8H129.6V103.2H127.2zM132,100.8H134.4V103.2H132zM141.6,100.8H144V103.2H141.6zM9.6,103.2H12V105.6H9.6zM14.4,103.2H16.8V105.6H14.4zM19.2,103.2H21.6V105.6H19.2zM21.6,103.2H24V105.6H21.6zM26.4,103.2H28.8V105.6H26.4zM31.2,103.2H33.6V105.6H31.2zM33.6,103.2H36V105.6H33.6zM38.4,103.2H40.8V105.6H38.4zM45.6,103.2H48V105.6H45.6zM48,103.2H50.4V105.6H48zM50.4,103.2H52.8V105.6H50.4zM52.8,103.2H55.2V105.6H52.8zM55.2,103.2H57.6V105.6H55.2zM67.2,103.2H69.6V105.6H67.2zM69.6,103.2H72V105.6H69.6zM72,103.2H74.4V105.6H72zM81.6,103.2H84V105.6H81.6zM88.8,103.2H91.2V105.6H88.8zM93.6,103.2H96V105.6H93.6zM96,103.2H98.4V105.6H96zM103.2,103.2H105.6V105.6H103.2zM105.6,103.2H108V105.6H105.6zM108,103.2H110.4V105.6H108zM112.8,103.2H115.2V105.6H112.8zM115.2,103.2H117.6V105.6H115.2zM122.4,103.2H124.8V105.6H122.4zM129.6,103.2H132V105.6H129.6zM134.4,103.2H136.8V105.6H134.4zM136.8,103.2H139.2V105.6H136.8zM139.2,103.2H141.6V105.6H139.2zM141.6,103.2H144V105.6H141.6zM9.6,105.6H12V108H9.6zM12,105.6H14.4V108H12zM21.6,105.6H24V108H21.6zM24,105.6H26.4V108H24zM31.2,105.6H33.6V108H31.2zM33.6,105.6H36V108H33.6zM38.4,105.6H40.8V108H38.4zM40.8,105.6H43.2V108H40.8zM43.2,105.6H45.6V108H43.2zM45.6,105.6H48V108H45.6zM55.2,105.6H57.6V108H55.2zM60,105.6H62.4V108H60zM64.8,105.6H67.2V108H64.8zM69.6,105.6H72V108H69.6zM72,105.6H74.4V108H72zM79.2,105.6H81.6V108H79.2zM81.6,105.6H84V108H81.6zM91.2,105.6H93.6V108H91.2zM93.6,105.6H96V108H93.6zM98.4,105.6H100.8V108H98.4zM108,105.6H110.4V108H108zM112.8,105.6H115.2V108H112.8zM117.6,105.6H120V108H117.6zM127.2,105.6H129.6V108H127.2zM134.4,105.6H136.8V108H134.4zM144,105.6H146.4V108H144zM21.6,108H24V110.4H21.6zM28.8,108H31.2V110.4H28.8zM33.6,108H36V110.4H33.6zM40.8,108H43.2V110.4H40.8zM43.2,108H45.6V110.4H43.2zM45.6,108H48V110.4H45.6zM50.4,108H52.8V110.4H50.4zM60,108H62.4V110.4H60zM67.2,108H69.6V110.4H67.2zM72,108H74.4V110.4H72zM76.8,108H79.2V110.4H76.8zM79.2,108H81.6V110.4H79.2zM84,108H86.4V110.4H84zM86.4,108H88.8V110.4H86.4zM88.8,108H91.2V110.4H88.8zM96,108H98.4V110.4H96zM108,108H110.4V110.4H108zM110.4,108H112.8V110.4H110.4zM112.8,108H115.2V110.4H112.8zM115.2,108H117.6V110.4H115.2zM122.4,108H124.8V110.4H122.4zM124.8,108H127.2V110.4H124.8zM136.8,108H139.2V110.4H136.8zM144,108H146.4V110.4H144zM12,110.4H14.4V112.8H12zM16.8,110.4H19.2V112.8H16.8zM21.6,110.4H24V112.8H21.6zM24,110.4H26.4V112.8H24zM33.6,110.4H36V112.8H33.6zM40.8,110.4H43.2V112.8H40.8zM43.2,110.4H45.6V112.8H43.2zM45.6,110.4H48V112.8H45.6zM48,110.4H50.4V112.8H48zM50.4,110.4H52.8V112.8H50.4zM60,110.4H62.4V112.8H60zM62.4,110.4H64.8V112.8H62.4zM67.2,110.4H69.6V112.8H67.2zM74.4,110.4H76.8V112.8H74.4zM79.2,110.4H81.6V112.8H79.2zM86.4,110.4H88.8V112.8H86.4zM98.4,110.4H100.8V112.8H98.4zM105.6,110.4H108V112.8H105.6zM112.8,110.4H115.2V112.8H112.8zM115.2,110.4H117.6V112.8H115.2zM124.8,110.4H127.2V112.8H124.8zM127.2,110.4H129.6V112.8H127.2zM134.4,110.4H136.8V112.8H134.4zM136.8,110.4H139.2V112.8H136.8zM139.2,110.4H141.6V112.8H139.2zM141.6,110.4H144V112.8H141.6zM9.6,112.8H12V115.2H9.6zM14.4,112.8H16.8V115.2H14.4zM16.8,112.8H19.2V115.2H16.8zM19.2,112.8H21.6V115.2H19.2zM26.4,112.8H28.8V115.2H26.4zM28.8,112.8H31.2V115.2H28.8zM31.2,112.8H33.6V115.2H31.2zM38.4,112.8H40.8V115.2H38.4zM40.8,112.8H43.2V115.2H40.8zM43.2,112.8H45.6V115.2H43.2zM45.6,112.8H48V115.2H45.6zM55.2,112.8H57.6V115.2H55.2zM60,112.8H62.4V115.2H60zM62.4,112.8H64.8V115.2H62.4zM84,112.8H86.4V115.2H84zM86.4,112.8H88.8V115.2H86.4zM91.2,112.8H93.6V115.2H91.2zM93.6,112.8H96V115.2H93.6zM96,112.8H98.4V115.2H96zM98.4,112.8H100.8V115.2H98.4zM103.2,112.8H105.6V115.2H103.2zM105.6,112.8H108V115.2H105.6zM108,112.8H110.4V115.2H108zM110.4,112.8H112.8V115.2H110.4zM112.8,112.8H115.2V115.2H112.8zM115.2,112.8H117.6V115.2H115.2zM117.6,112.8H120V115.2H117.6zM120,112.8H122.4V115.2H120zM122.4,112.8H124.8V115.2H122.4zM127.2,112.8H129.6V115.2H127.2zM129.6,112.8H132V115.2H129.6zM134.4,112.8H136.8V115.2H134.4zM139.2,112.8H141.6V115.2H139.2zM141.6,112.8H144V115.2H141.6zM144,112.8H146.4V115.2H144zM9.6,115.2H12V117.6H9.6zM16.8,115.2H19.2V117.6H16.8zM19.2,115.2H21.6V117.6H19.2zM21.6,115.2H24V117.6H21.6zM24,115.2H26.4V117.6H24zM28.8,115.2H31.2V117.6H28.8zM31.2,115.2H33.6V117.6H31.2zM36,115.2H38.4V117.6H36zM38.4,115.2H40.8V117.6H38.4zM40.8,115.2H43.2V117.6H40.8zM48,115.2H50.4V117.6H48zM50.4,115.2H52.8V117.6H50.4zM67.2,115.2H69.6V117.6H67.2zM69.6,115.2H72V117.6H69.6zM72,115.2H74.4V117.6H72zM74.4,115.2H76.8V117.6H74.4zM76.8,115.2H79.2V117.6H76.8zM79.2,115.2H81.6V117.6H79.2zM81.6,115.2H84V117.6H81.6zM91.2,115.2H93.6V117.6H91.2zM96,115.2H98.4V117.6H96zM110.4,115.2H112.8V117.6H110.4zM112.8,115.2H115.2V117.6H112.8zM117.6,115.2H120V117.6H117.6zM120,115.2H122.4V117.6H120zM129.6,115.2H132V117.6H129.6zM132,115.2H134.4V117.6H132zM134.4,115.2H136.8V117.6H134.4zM136.8,115.2H139.2V117.6H136.8zM141.6,115.2H144V117.6H141.6zM144,115.2H146.4V117.6H144zM14.4,117.6H16.8V120H14.4zM21.6,117.6H24V120H21.6zM26.4,117.6H28.8V120H26.4zM31.2,117.6H33.6V120H31.2zM33.6,117.6H36V120H33.6zM38.4,117.6H40.8V120H38.4zM40.8,117.6H43.2V120H40.8zM50.4,117.6H52.8V120H50.4zM52.8,117.6H55.2V120H52.8zM57.6,117.6H60V120H57.6zM60,117.6H62.4V120H60zM64.8,117.6H67.2V120H64.8zM69.6,117.6H72V120H69.6zM76.8,117.6H79.2V120H76.8zM86.4,117.6H88.8V120H86.4zM88.8,117.6H91.2V120H88.8zM98.4,117.6H100.8V120H98.4zM105.6,117.6H108V120H105.6zM108,117.6H110.4V120H108zM110.4,117.6H112.8V120H110.4zM112.8,117.6H115.2V120H112.8zM117.6,117.6H120V120H117.6zM122.4,117.6H124.8V120H122.4zM127.2,117.6H129.6V120H127.2zM139.2,117.6H141.6V120H139.2zM144,117.6H146.4V120H144zM9.6,120H12V122.4H9.6zM14.4,120H16.8V122.4H14.4zM21.6,120H24V122.4H21.6zM24,120H26.4V122.4H24zM26.4,120H28.8V122.4H26.4zM28.8,120H31.2V122.4H28.8zM31.2,120H33.6V122.4H31.2zM33.6,120H36V122.4H33.6zM40.8,120H43.2V122.4H40.8zM60,120H62.4V122.4H60zM64.8,120H67.2V122.4H64.8zM67.2,120H69.6V122.4H67.2zM81.6,120H84V122.4H81.6zM84,120H86.4V122.4H84zM93.6,120H96V122.4H93.6zM100.8,120H103.2V122.4H100.8zM103.2,120H105.6V122.4H103.2zM112.8,120H115.2V122.4H112.8zM117.6,120H120V122.4H117.6zM120,120H122.4V122.4H120zM124.8,120H127.2V122.4H124.8zM127.2,120H129.6V122.4H127.2zM134.4,120H136.8V122.4H134.4zM139.2,120H141.6V122.4H139.2zM141.6,120H144V122.4H141.6zM9.6,122.4H12V124.8H9.6zM12,122.4H14.4V124.8H12zM14.4,122.4H16.8V124.8H14.4zM16.8,122.4H19.2V124.8H16.8zM19.2,122.4H21.6V124.8H19.2zM31.2,122.4H33.6V124.8H31.2zM36,122.4H38.4V124.8H36zM38.4,122.4H40.8V124.8H38.4zM43.2,122.4H45.6V124.8H43.2zM45.6,122.4H48V124.8H45.6zM48,122.4H50.4V124.8H48zM55.2,122.4H57.6V124.8H55.2zM60,122.4H62.4V124.8H60zM62.4,122.4H64.8V124.8H62.4zM72,122.4H74.4V124.8H72zM74.4,122.4H76.8V124.8H74.4zM81.6,122.4H84V124.8H81.6zM86.4,122.4H88.8V124.8H86.4zM96,122.4H98.4V124.8H96zM98.4,122.4H100.8V124.8H98.4zM100.8,122.4H103.2V124.8H100.8zM103.2,122.4H105.6V124.8H103.2zM105.6,122.4H108V124.8H105.6zM108,122.4H110.4V124.8H108zM115.2,122.4H117.6V124.8H115.2zM117.6,122.4H120V124.8H117.6zM122.4,122.4H124.8V124.8H122.4zM127.2,122.4H129.6V124.8H127.2zM129.6,122.4H132V124.8H129.6zM132,122.4H134.4V124.8H132zM136.8,122.4H139.2V124.8H136.8zM139.2,122.4H141.6V124.8H139.2zM141.6,122.4H144V124.8H141.6zM144,122.4H146.4V124.8H144zM24,124.8H26.4V127.2H24zM26.4,124.8H28.8V127.2H26.4zM38.4,124.8H40.8V127.2H38.4zM40.8,124.8H43.2V127.2H40.8zM48,124.8H50.4V127.2H48zM50.4,124.8H52.8V127.2H50.4zM52.8,124.8H55.2V127.2H52.8zM55.2,124.8H57.6V127.2H55.2zM69.6,124.8H72V127.2H69.6zM72,124.8H74.4V127.2H72zM74.4,124.8H76.8V127.2H74.4zM76.8,124.8H79.2V127.2H76.8zM79.2,124.8H81.6V127.2H79.2zM81.6,124.8H84V127.2H81.6zM86.4,124.8H88.8V127.2H86.4zM96,124.8H98.4V127.2H96zM100.8,124.8H103.2V127.2H100.8zM110.4,124.8H112.8V127.2H110.4zM112.8,124.8H115.2V127.2H112.8zM124.8,124.8H127.2V127.2H124.8zM127.2,124.8H129.6V127.2H127.2zM129.6,124.8H132V127.2H129.6zM132,124.8H134.4V127.2H132zM134.4,124.8H136.8V127.2H134.4zM28.8,127.2H31.2V129.6H28.8zM33.6,127.2H36V129.6H33.6zM36,127.2H38.4V129.6H36zM40.8,127.2H43.2V129.6H40.8zM45.6,127.2H48V129.6H45.6zM48,127.2H50.4V129.6H48zM50.4,127.2H52.8V129.6H50.4zM64.8,127.2H67.2V129.6H64.8zM72,127.2H74.4V129.6H72zM81.6,127.2H84V129.6H81.6zM86.4,127.2H88.8V129.6H86.4zM88.8,127.2H91.2V129.6H88.8zM91.2,127.2H93.6V129.6H91.2zM98.4,127.2H100.8V129.6H98.4zM100.8,127.2H103.2V129.6H100.8zM105.6,127.2H108V129.6H105.6zM108,127.2H110.4V129.6H108zM110.4,127.2H112.8V129.6H110.4zM115.2,127.2H117.6V129.6H115.2zM124.8,127.2H127.2V129.6H124.8zM134.4,127.2H136.8V129.6H134.4zM139.2,127.2H141.6V129.6H139.2zM144,127.2H146.4V129.6H144zM9.6,129.6H12V132H9.6zM12,129.6H14.4V132H12zM14.4,129.6H16.8V132H14.4zM16.8,129.6H19.2V132H16.8zM19.2,129.6H21.6V132H19.2zM21.6,129.6H24V132H21.6zM24,129.6H26.4V132H24zM31.2,129.6H33.6V132H31.2zM38.4,129.6H40.8V132H38.4zM43.2,129.6H45.6V132H43.2zM45.6,129.6H48V132H45.6zM50.4,129.6H52.8V132H50.4zM67.2,129.6H69.6V132H67.2zM72,129.6H74.4V132H72zM76.8,129.6H79.2V132H76.8zM81.6,129.6H84V132H81.6zM84,129.6H86.4V132H84zM88.8,129.6H91.2V132H88.8zM91.2,129.6H93.6V132H91.2zM93.6,129.6H96V132H93.6zM103.2,129.6H105.6V132H103.2zM117.6,129.6H120V132H117.6zM120,129.6H122.4V132H120zM122.4,129.6H124.8V132H122.4zM124.8,129.6H127.2V132H124.8zM129.6,129.6H132V132H129.6zM134.4,129.6H136.8V132H134.4zM136.8,129.6H139.2V132H136.8zM139.2,129.6H141.6V132H139.2zM141.6,129.6H144V132H141.6zM9.6,132H12V134.4H9.6zM24,132H26.4V134.4H24zM33.6,132H36V134.4H33.6zM36,132H38.4V134.4H36zM38.4,132H40.8V134.4H38.4zM40.8,132H43.2V134.4H40.8zM52.8,132H55.2V134.4H52.8zM57.6,132H60V134.4H57.6zM62.4,132H64.8V134.4H62.4zM67.2,132H69.6V134.4H67.2zM72,132H74.4V134.4H72zM81.6,132H84V134.4H81.6zM84,132H86.4V134.4H84zM86.4,132H88.8V134.4H86.4zM88.8,132H91.2V134.4H88.8zM93.6,132H96V134.4H93.6zM96,132H98.4V134.4H96zM105.6,132H108V134.4H105.6zM108,132H110.4V134.4H108zM115.2,132H117.6V134.4H115.2zM117.6,132H120V134.4H117.6zM124.8,132H127.2V134.4H124.8zM134.4,132H136.8V134.4H134.4zM136.8,132H139.2V134.4H136.8zM139.2,132H141.6V134.4H139.2zM9.6,134.4H12V136.8H9.6zM14.4,134.4H16.8V136.8H14.4zM16.8,134.4H19.2V136.8H16.8zM19.2,134.4H21.6V136.8H19.2zM24,134.4H26.4V136.8H24zM28.8,134.4H31.2V136.8H28.8zM31.2,134.4H33.6V136.8H31.2zM33.6,134.4H36V136.8H33.6zM40.8,134.4H43.2V136.8H40.8zM55.2,134.4H57.6V136.8H55.2zM60,134.4H62.4V136.8H60zM62.4,134.4H64.8V136.8H62.4zM64.8,134.4H67.2V136.8H64.8zM72,134.4H74.4V136.8H72zM74.4,134.4H76.8V136.8H74.4zM76.8,134.4H79.2V136.8H76.8zM79.2,134.4H81.6V136.8H79.2zM81.6,134.4H84V136.8H81.6zM88.8,134.4H91.2V136.8H88.8zM91.2,134.4H93.6V136.8H91.2zM108,134.4H110.4V136.8H108zM120,134.4H122.4V136.8H120zM124.8,134.4H127.2V136.8H124.8zM127.2,134.4H129.6V136.8H127.2zM129.6,134.4H132V136.8H129.6zM132,134.4H134.4V136.8H132zM134.4,134.4H136.8V136.8H134.4zM136.8,134.4H139.2V136.8H136.8zM9.6,136.8H12V139.2H9.6zM14.4,136.8H16.8V139.2H14.4zM16.8,136.8H19.2V139.2H16.8zM19.2,136.8H21.6V139.2H19.2zM24,136.8H26.4V139.2H24zM28.8,136.8H31.2V139.2H28.8zM31.2,136.8H33.6V139.2H31.2zM36,136.8H38.4V139.2H36zM38.4,136.8H40.8V139.2H38.4zM43.2,136.8H45.6V139.2H43.2zM50.4,136.8H52.8V139.2H50.4zM55.2,136.8H57.6V139.2H55.2zM60,136.8H62.4V139.2H60zM62.4,136.8H64.8V139.2H62.4zM64.8,136.8H67.2V139.2H64.8zM67.2,136.8H69.6V139.2H67.2zM69.6,136.8H72V139.2H69.6zM79.2,136.8H81.6V139.2H79.2zM93.6,136.8H96V139.2H93.6zM96,136.8H98.4V139.2H96zM98.4,136.8H100.8V139.2H98.4zM105.6,136.8H108V139.2H105.6zM108,136.8H110.4V139.2H108zM110.4,136.8H112.8V139.2H110.4zM127.2,136.8H129.6V139.2H127.2zM134.4,136.8H136.8V139.2H134.4zM136.8,136.8H139.2V139.2H136.8zM139.2,136.8H141.6V139.2H139.2zM9.6,139.2H12V141.6H9.6zM14.4,139.2H16.8V141.6H14.4zM16.8,139.2H19.2V141.6H16.8zM19.2,139.2H21.6V141.6H19.2zM24,139.2H26.4V141.6H24zM28.8,139.2H31.2V141.6H28.8zM31.2,139.2H33.6V141.6H31.2zM38.4,139.2H40.8V141.6H38.4zM45.6,139.2H48V141.6H45.6zM50.4,139.2H52.8V141.6H50.4zM57.6,139.2H60V141.6H57.6zM60,139.2H62.4V141.6H60zM64.8,139.2H67.2V141.6H64.8zM72,139.2H74.4V141.6H72zM74.4,139.2H76.8V141.6H74.4zM79.2,139.2H81.6V141.6H79.2zM84,139.2H86.4V141.6H84zM86.4,139.2H88.8V141.6H86.4zM88.8,139.2H91.2V141.6H88.8zM96,139.2H98.4V141.6H96zM98.4,139.2H100.8V141.6H98.4zM100.8,139.2H103.2V141.6H100.8zM112.8,139.2H115.2V141.6H112.8zM117.6,139.2H120V141.6H117.6zM120,139.2H122.4V141.6H120zM122.4,139.2H124.8V141.6H122.4zM124.8,139.2H127.2V141.6H124.8zM139.2,139.2H141.6V141.6H139.2zM9.6,141.6H12V144H9.6zM24,141.6H26.4V144H24zM36,141.6H38.4V144H36zM43.2,141.6H45.6V144H43.2zM45.6,141.6H48V144H45.6zM48,141.6H50.4V144H48zM50.4,141.6H52.8V144H50.4zM52.8,141.6H55.2V144H52.8zM55.2,141.6H57.6V144H55.2zM67.2,141.6H69.6V144H67.2zM76.8,141.6H79.2V144H76.8zM81.6,141.6H84V144H81.6zM84,141.6H86.4V144H84zM86.4,141.6H88.8V144H86.4zM88.8,141.6H91.2V144H88.8zM93.6,141.6H96V144H93.6zM96,141.6H98.4V144H96zM103.2,141.6H105.6V144H103.2zM108,141.6H110.4V144H108zM112.8,141.6H115.2V144H112.8zM115.2,141.6H117.6V144H115.2zM127.2,141.6H129.6V144H127.2zM132,141.6H134.4V144H132zM139.2,141.6H141.6V144H139.2zM9.6,144H12V146.4H9.6zM12,144H14.4V146.4H12zM14.4,144H16.8V146.4H14.4zM16.8,144H19.2V146.4H16.8zM19.2,144H21.6V146.4H19.2zM21.6,144H24V146.4H21.6zM24,144H26.4V146.4H24zM36,144H38.4V146.4H36zM38.4,144H40.8V146.4H38.4zM43.2,144H45.6V146.4H43.2zM45.6,144H48V146.4H45.6zM48,144H50.4V146.4H48zM55.2,144H57.6V146.4H55.2zM57.6,144H60V146.4H57.6zM64.8,144H67.2V146.4H64.8zM67.2,144H69.6V146.4H67.2zM76.8,144H79.2V146.4H76.8zM84,144H86.4V146.4H84zM86.4,144H88.8V146.4H86.4zM96,144H98.4V146.4H96zM105.6,144H108V146.4H105.6zM112.8,144H115.2V146.4H112.8zM122.4,144H124.8V146.4H122.4zM129.6,144H132V146.4H129.6zM132,144H134.4V146.4H132zM134.4,144H136.8V146.4H134.4zM136.8,144H139.2V146.4H136.8zM141.6,144H144V146.4H141.6z" id="qr-path" fill="#000000" fill-opacity="1" fill-rule="nonzero" stroke="none" /></svg>