<?xml version='1.0' encoding='UTF-8'?>
<svg width="98.4mm" height="98.4mm" version="1.1" viewBox="0 0 98.4 98.4" fill_color="black" back_color="white" xmlns="http://www.w3.org/2000/svg"><path d="M9.6,9.6H12V12H9.6zM12,9.6H14.4V12H12zM14.4,9.6H16.8V12H14.4zM16.8,9.6H19.2V12H16.8zM19.2,9.6H21.6V12H19.2zM21.6,9.6H24V12H21.6zM24,9.6H26.4V12H24zM28.8,9.6H31.2V12H28.8zM38.4,9.6H40.8V12H38.4zM40.8,9.6H43.2V12H40.8zM52.8,9.6H55.2V12H52.8zM57.6,9.6H60V12H57.6zM60,9.6H62.4V12H60zM62.4,9.6H64.8V12H62.4zM64.8,9.6H67.2V12H64.8zM67.2,9.6H69.6V12H67.2zM72,9.6H74.4V12H72zM74.4,9.6H76.8V12H74.4zM76.8,9.6H79.2V12H76.8zM79.2,9.6H81.6V12H79.2zM81.6,9.6H84V12H81.6zM84,9.6H86.4V12H84zM86.4,9.6H88.8V12H86.4zM9.6,12H12V14.4H9.6zM24,12H26.4V14.4H24zM33.6,12H36V14.4H33.6zM36,12H38.4V14.4H36zM38.4,12H40.8V14.4H38.4zM45.6,12H48V14.4H45.6zM52.8,12H55.2V14.4H52.8zM55.2,12H57.6V14.4H55.2zM62.4,12H64.8V14.4H62.4zM64.8,12H67.2V14.4H64.8zM72,12H74.4V14.4H72zM86.4,12H88.8V14.4H86.4zM9.6,14.4H12V16.8H9.6zM14.4,14.4H16.8V16.8H14.4zM16.8,14.4H19.2V16.8H16.8zM19.2,14.4H21.6V16.8H19.2zM24,14.4H26.4V16.8H24zM31.2,14.4H33.6V16.8H31.2zM33.6,14.4H36V16.8H33.6zM40.8,14.4H43.2V16.8H40.8zM48,14.4H50.4V16.8H48zM52.8,14.4H55.2V16.8H52.8zM62.4,14.4H64.8V16.8H62.4zM64.8,14.4H67.2V16.8H64.8zM67.2,14.4H69.6V16.8H67.2zM72,14.4H74.4V16.8H72zM76.8,14.4H79.2V16.8H76.8zM79.2,14.4H81.6V16.8H79.2zM81.6,14.4H84V16.8H81.6zM86.4,14.4H88.8V16.8H86.4zM9.6,16.8H12V19.2H9.6zM14.4,16.8H16.8V19.2H14.4zM16.8,16.8H19.2V19.2H16.8zM19.2,16.8H21.6V19.2H19.2zM24,16.8H26.4V19.2H24zM28.8,16.8H31.2V19.2H28.8zM31.2,16.8H33.6V19.2H31.2zM36,16.8H38.4V19.2H36zM40.8,16.8H43.2V19.2H40.8zM45.6,16.8H48V19.2H45.6zM50.4,16.8H52.8V19.2H50.4zM55.2,16.8H57.6V19.2H55.2zM57.6,16.8H60V19.2H57.6zM62.4,16.8H64.8V19.2H62.4zM67.2,16.8H69.6V19.2H67.2zM72,16.8H74.4V19.2H72zM76.8,16.8H79.2V19.2H76.8zM79.2,16.8H81.6V19.2H79.2zM81.6,16.8H84V19.2H81.6zM86.4,16.8H88.8V19.2H86.4zM9.6,19.2H12V21.6H9.6zM14.4,19.2H16.8V21.6H14.4zM16.8,19.2H19.2V21.6H16.8zM19.2,19.2H21.6V21.6H19.2zM24,19.2H26.4V21.6H24zM33.6,19.2H36V21.6H33.6zM36,19.2H38.4V21.6H36zM50.4,19.2H52.8V21.6H50.4zM55.2,19.2H57.6V21.6H55.2zM62.4,19.2H64.8V21.6H62.4zM67.2,19.2H69.6V21.6H67.2zM72,19.2H74.4V21.6H72zM76.8,19.2H79.2V21.6H76.8zM79.2,19.2H81.6V21.6H79.2zM81.6,19.2H84V21.6H81.6zM86.4,19.2H88.8V21.6H86.4zM9.6,21.6H12V24H9.6zM24,21.6H26.4V24H24zM31.2,21.6H33.6V24H31.2zM33.6,21.6H36V24H33.6zM36,21.6H38.4V24H36zM40.8,21.6H43.2V24H40.8zM43.2,21.6H45.6V24H43.2zM45.6,21.6H48V24H45.6zM52.8,21.6H55.2V24H52.8zM60,21.6H62.4V24H60zM64.8,21.6H67.2V24H64.8zM67.2,21.6H69.6V24H67.2zM72,21.6H74.4V24H72zM86.4,21.6H88.8V24H86.4zM9.6,24H12V26.4H9.6zM12,24H14.4V26.4H12zM14.4,24H16.8V26.4H14.4zM16.8,24H19.2V26.4H16.8zM19.2,24H21.6V26.4H19.2zM21.6,24H24V26.4H21.6zM24,24H26.4V26.4H24zM28.8,24H31.2V26.4H28.8zM33.6,24H36V26.4H33.6zM38.4,24H40.8V26.4H38.4zM43.2,24H45.6V26.4H43.2zM48,24H50.4V26.4H48zM52.8,24H55.2V26.4H52.8zM57.6,24H60V26.4H57.6zM62.4,24H64.8V26.4H62.4zM67.2,24H69.6V26.4H67.2zM72,24H74.4V26.4H72zM74.4,24H76.8V26.4H74.4zM76.8,24H79.2V26.4H76.8zM79.2,24H81.6V26.4H79.2zM81.6,24H84V26.4H81.6zM84,24H86.4V26.4H84zM86.4,24H88.8V26.4H86.4zM33.6,26.4H36V28.8H33.6zM36,26.4H38.4V28.8H36zM38.4,26.4H40.8V28.8H38.4zM45.6,26.4H48V28.8H45.6zM50.4,26.4H52.8V28.8H50.4zM55.2,26.4H57.6V28.8H55.2zM57.6,26.4H60V28.8H57.6zM60,26.4H62.4V28.8H60zM62.4,26.4H64.8V28.8H62.4zM64.8,26.4H67.2V28.8H64.8zM14.4,28.8H16.8V31.2H14.4zM19.2,28.8H21.6V31.2H19.2zM21.6,28.8H24V31.2H21.6zM24,28.8H26.4V31.2H24zM28.8,28.8H31.2V31.2H28.8zM31.2,28.8H33.6V31.2H31.2zM33.6,28.8H36V31.2H33.6zM36,28.8H38.4V31.2H36zM38.4,28.8H40.8V31.2H38.4zM43.2,28.8H45.6V31.2H43.2zM45.6,28.8H48V31.2H45.6zM50.4,28.8H52.8V31.2H50.4zM52.8,28.8H55.2V31.2H52.8zM60,28.8H62.4V31.2H60zM67.2,28.8H69.6V31.2H67.2zM69.6,28.8H72V31.2H69.6zM79.2,28.8H81.6V31.2H79.2zM86.4,28.8H88.8V31.2H86.4zM16.8,31.2H19.2V33.6H16.8zM19.2,31.2H21.6V33.6H19.2zM26.4,31.2H28.8V33.6H26.4zM31.2,31.2H33.6V33.6H31.2zM33.6,31.2H36V33.6H33.6zM40.8,31.2H43.2V33.6H40.8zM43.2,31.2H45.6V33.6H43.2zM48,31.2H50.4V33.6H48zM50.4,31.2H52.8V33.6H50.4zM55.2,31.2H57.6V33.6H55.2zM67.2,31.2H69.6V33.6H67.2zM72,31.2H74.4V33.6H72zM79.2,31.2H81.6V33.6H79.2zM81.6,31.2H84V33.6H81.6zM86.4,31.2H88.8V33.6H86.4zM9.6,33.6H12V36H9.6zM12,33.6H14.4V36H12zM14.4,33.6H16.8V36H14.4zM16.8,33.6H19.2V36H16.8zM21.6,33.6H24V36H21.6zM24,33.6H26.4V36H24zM26.4,33.6H28.8V36H26.4zM31.2,33.6H33.6V36H31.2zM33.6,33.6H36V36H33.6zM36,33.6H38.4V36H36zM38.4,33.6H40.8V36H38.4zM43.2,33.6H45.6V36H43.2zM45.6,33.6H48V36H45.6zM50.4,33.6H52.8V36H50.4zM52.8,33.6H55.2V36H52.8zM57.6,33.6H60V36H57.6zM60,33.6H62.4V36H60zM67.2,33.6H69.6V36H67.2zM69.6,33.6H72V36H69.6zM76.8,33.6H79.2V36H76.8zM79.2,33.6H81.6V36H79.2zM81.6,33.6H84V36H81.6zM84,33.6H86.4V36H84zM86.4,33.6H88.8V36H86.4zM16.8,36H19.2V38.4H16.8zM19.2,36H21.6V38.4H19.2zM21.6,36H24V38.4H21.6zM26.4,36H28.8V38.4H26.4zM28.8,36H31.2V38.4H28.8zM31.2,36H33.6V38.4H31.2zM33.6,36H36V38.4H33.6zM36,36H38.4V38.4H36zM40.8,36H43.2V38.4H40.8zM48,36H50.4V38.4H48zM67.2,36H69.6V38.4H67.2zM69.6,36H72V38.4H69.6zM72,36H74.4V38.4H72zM86.4,36H88.8V38.4H86.4zM9.6,38.4H12V40.8H9.6zM19.2,38.4H21.6V40.8H19.2zM24,38.4H26.4V40.8H24zM28.8,38.4H31.2V40.8H28.8zM33.6,38.4H36V40.8H33.6zM36,38.4H38.4V40.8H36zM38.4,38.4H40.8V40.8H38.4zM40.8,38.4H43.2V40.8H40.8zM43.2,38.4H45.6V40.8H43.2zM50.4,38.4H52.8V40.8H50.4zM55.2,38.4H57.6V40.8H55.2zM67.2,38.4H69.6V40.8H67.2zM69.6,38.4H72V40.8H69.6zM72,38.4H74.4V40.8H72zM79.2,38.4H81.6V40.8H79.2zM84,38.4H86.4V40.8H84zM86.4,38.4H88.8V40.8H86.4zM9.6,40.8H12V43.2H9.6zM12,40.8H14.4V43.2H12zM21.6,40.8H24V43.2H21.6zM26.4,40.8H28.8V43.2H26.4zM33.6,40.8H36V43.2H33.6zM38.4,40.8H40.8V43.2H38.4zM45.6,40.8H48V43.2H45.6zM48,40.8H50.4V43.2H48zM57.6,40.8H60V43.2H57.6zM67.2,40.8H69.6V43.2H67.2zM72,40.8H74.4V43.2H72zM81.6,40.8H84V43.2H81.6zM84,40.8H86.4V43.2H84zM86.4,40.8H88.8V43.2H86.4zM12,43.2H14.4V45.6H12zM19.2,43.2H21.6V45.6H19.2zM21.6,43.2H24V45.6H21.6zM24,43.2H26.4V45.6H24zM26.4,43.2H28.8V45.6H26.4zM33.6,43.2H36V45.6H33.6zM36,43.2H38.4V45.6H36zM60,43.2H62.4V45.6H60zM72,43.2H74.4V45.6H72zM74.4,43.2H76.8V45.6H74.4zM84,43.2H86.4V45.6H84zM86.4,43.2H88.8V45.6H86.4zM21.6,45.6H24V48H21.6zM26.4,45.6H28.8V48H26.4zM33.6,45.6H36V48H33.6zM40.8,45.6H43.2V48H40.8zM43.2,45.6H45.6V48H43.2zM48,45.6H50.4V48H48zM50.4,45.6H52.8V48H50.4zM52.8,45.6H55.2V48H52.8zM57.6,45.6H60V48H57.6zM60,45.6H62.4V48H60zM62.4,45.6H64.8V48H62.4zM64.8,45.6H67.2V48H64.8zM76.8,45.6H79.2V48H76.8zM84,45.6H86.4V48H84zM86.4,45.6H88.8V48H86.4zM16.8,48H19.2V50.4H16.8zM21.6,48H24V50.4H21.6zM24,48H26.4V50.4H24zM31.2,48H33.6V50.4H31.2zM38.4,48H40.8V50.4H38.4zM40.8,48H43.2V50.4H40.8zM43.2,48H45.6V50.4H43.2zM45.6,48H48V50.4H45.6zM52.8,48H55.2V50.4H52.8zM55.2,48H57.6V50.4H55.2zM60,48H62.4V50.4H60zM62.4,48H64.8V50.4H62.4zM64.8,48H67.2V50.4H64.8zM69.6,48H72V50.4H69.6zM72,48H74.4V50.4H72zM84,48H86.4V50.4H84zM9.6,50.4H12V52.8H9.6zM14.4,50.4H16.8V52.8H14.4zM19.2,50.4H21.6V52.8H19.2zM28.8,50.4H31.2V52.8H28.8zM31.2,50.4H33.6V52.8H31.2zM33.6,50.4H36V52.8H33.6zM40.8,50.4H43.2V52.8H40.8zM45.6,50.4H48V52.8H45.6zM55.2,50.4H57.6V52.8H55.2zM57.6,50.4H60V52.8H57.6zM60,50.4H62.4V52.8H60zM69.6,50.4H72V52.8H69.6zM72,50.4H74.4V52.8H72zM79.2,50.4H81.6V52.8H79.2zM81.6,50.4H84V52.8H81.6zM84,50.4H86.4V52.8H84zM86.4,50.4H88.8V52.8H86.4zM9.6,52.8H12V55.2H9.6zM19.2,52.8H21.6V55.2H19.2zM24,52.8H26.4V55.2H24zM26.4,52.8H28.8V55.2H26.4zM31.2,52.8H33.6V55.2H31.2zM36,52.8H38.4V55.2H36zM38.4,52.8H40.8V55.2H38.4zM40.8,52.8H43.2V55.2H40.8zM43.2,52.8H45.6V55.2H43.2zM45.6,52.8H48V55.2H45.6zM48,52.8H50.4V55.2H48zM50.4,52.8H52.8V55.2H50.4zM52.8,52.8H55.2V55.2H52.8zM57.6,52.8H60V55.2H57.6zM60,52.8H62.4V55.2H60zM62.4,52.8H64.8V55.2H62.4zM69.6,52.8H72V55.2H69.6zM76.8,52.8H79.2V55.2H76.8zM81.6,52.8H84V55.2H81.6zM86.4,52.8H88.8V55.2H86.4zM12,55.2H14.4V57.6H12zM14.4,55.2H16.8V57.6H14.4zM19.2,55.2H21.6V57.6H19.2zM21.6,55.2H24V57.6H21.6zM26.4,55.2H28.8V57.6H26.4zM31.2,55.2H33.6V57.6H31.2zM33.6,55.2H36V57.6H33.6zM45.6,55.2H48V57.6H45.6zM50.4,55.2H52.8V57.6H50.4zM52.8,55.2H55.2V57.6H52.8zM60,55.2H62.4V57.6H60zM62.4,55.2H64.8V57.6H62.4zM76.8,55.2H79.2V57.6H76.8zM14.4,57.6H16.8V60H14.4zM24,57.6H26.4V60H24zM26.4,57.6H28.8V60H26.4zM28.8,57.6H31.2V60H28.8zM33.6,57.6H36V60H33.6zM36,57.6H38.4V60H36zM38.4,57.6H40.8V60H38.4zM40.8,57.6H43.2V60H40.8zM45.6,57.6H48V60H45.6zM50.4,57.6H52.8V60H50.4zM57.6,57.6H60V60H57.6zM60,57.6H62.4V60H60zM67.2,57.6H69.6V60H67.2zM72,57.6H74.4V60H72zM79.2,57.6H81.6V60H79.2zM84,57.6H86.4V60H84zM86.4,57.6H88.8V60H86.4zM19.2,60H21.6V62.4H19.2zM21.6,60H24V62.4H21.6zM26.4,60H28.8V62.4H26.4zM28.8,60H31.2V62.4H28.8zM31.2,60H33.6V62.4H31.2zM38.4,60H40.8V62.4H38.4zM40.8,60H43.2V62.4H40.8zM43.2,60H45.6V62.4H43.2zM52.8,60H55.2V62.4H52.8zM60,60H62.4V62.4H60zM64.8,60H67.2V62.4H64.8zM67.2,60H69.6V62.4H67.2zM69.6,60H72V62.4H69.6zM74.4,60H76.8V62.4H74.4zM86.4,60H88.8V62.4H86.4zM9.6,62.4H12V64.8H9.6zM21.6,62.4H24V64.8H21.6zM24,62.4H26.4V64.8H24zM31.2,62.4H33.6V64.8H31.2zM33.6,62.4H36V64.8H33.6zM40.8,62.4H43.2V64.8H40.8zM45.6,62.4H48V64.8H45.6zM48,62.4H50.4V64.8H48zM50.4,62.4H52.8V64.8H50.4zM57.6,62.4H60V64.8H57.6zM60,62.4H62.4V64.8H60zM62.4,62.4H64.8V64.8H62.4zM64.8,62.4H67.2V64.8H64.8zM67.2,62.4H69.6V64.8H67.2zM72,62.4H74.4V64.8H72zM74.4,62.4H76.8V64.8H74.4zM79.2,62.4H81.6V64.8H79.2zM84,62.4H86.4V64.8H84zM86.4,62.4H88.8V64.8H86.4zM12,64.8H14.4V67.2H12zM16.8,64.8H19.2V67.2H16.8zM21.6,64.8H24V67.2H21.6zM28.8,64.8H31.2V67.2H28.8zM33.6,64.8H36V67.2H33.6zM38.4,64.8H40.8V67.2H38.4zM40.8,64.8H43.2V67.2H40.8zM48,64.8H50.4V67.2H48zM52.8,64.8H55.2V67.2H52.8zM55.2,64.8H57.6V67.2H55.2zM57.6,64.8H60V67.2H57.6zM60,64.8H62.4V67.2H60zM62.4,64.8H64.8V67.2H62.4zM67.2,64.8H69.6V67.2H67.2zM69.6,64.8H72V67.2H69.6zM84,64.8H86.4V67.2H84zM9.6,67.2H12V69.6H9.6zM16.8,67.2H19.2V69.6H16.8zM19.2,67.2H21.6V69.6H19.2zM21.6,67.2H24V69.6H21.6zM24,67.2H26.4V69.6H24zM26.4,67.2H28.8V69.6H26.4zM36,67.2H38.4V69.6H36zM38.4,67.2H40.8V69.6H38.4zM40.8,67.2H43.2V69.6H40.8zM45.6,67.2H48V69.6H45.6zM50.4,67.2H52.8V69.6H50.4zM52.8,67.2H55.2V69.6H52.8zM55.2,67.2H57.6V69.6H55.2zM60,67.2H62.4V69.6H60zM64.8,67.2H67.2V69.6H64.8zM67.2,67.2H69.6V69.6H67.2zM69.6,67.2H72V69.6H69.6zM72,67.2H74.4V69.6H72zM74.4,67.2H76.8V69.6H74.4zM76.8,67.2H79.2V69.6H76.8zM79.2,67.2H81.6V69.6H79.2zM28.8,69.6H31.2V72H28.8zM31.2,69.6H33.6V72H31.2zM36,69.6H38.4V72H36zM40.8,69.6H43.2V72H40.8zM48,69.6H50.4V72H48zM55.2,69.6H57.6V72H55.2zM60,69.6H62.4V72H60zM64.8,69.6H67.2V72H64.8zM67.2,69.6H69.6V72H67.2zM76.8,69.6H79.2V72H76.8zM79.2,69.6H81.6V72H79.2zM86.4,69.6H88.8V72H86.4zM9.6,72H12V74.4H9.6zM12,72H14.4V74.4H12zM14.4,72H16.8V74.4H14.4zM16.8,72H19.2V74.4H16.8zM19.2,72H21.6V74.4H19.2zM21.6,72H24V74.4H21.6zM24,72H26.4V74.4H24zM38.4,72H40.8V74.4H38.4zM45.6,72H48V74.4H45.6zM48,72H50.4V74.4H48zM50.4,72H52.8V74.4H50.4zM52.8,72H55.2V74.4H52.8zM55.2,72H57.6V74.4H55.2zM62.4,72H64.8V74.4H62.4zM64.8,72H67.2V74.4H64.8zM67.2,72H69.6V74.4H67.2zM72,72H74.4V74.4H72zM76.8,72H79.2V74.4H76.8zM79.2,72H81.6V74.4H79.2zM84,72H86.4V74.4H84zM86.4,72H88.8V74.4H86.4zM9.6,74.4H12V76.8H9.6zM24,74.4H26.4V76.8H24zM28.8,74.4H31.2V76.8H28.8zM50.4,74.4H52.8V76.8H50.4zM52.8,74.4H55.2V76.8H52.8zM55.2,74.4H57.6V76.8H55.2zM57.6,74.4H60V76.8H57.6zM60,74.4H62.4V76.8H60zM62.4,74.4H64.8V76.8H62.4zM67.2,74.4H69.6V76.8H67.2zM76.8,74.4H79.2V76.8H76.8zM86.4,74.4H88.8V76.8H86.4zM9.6,76.8H12V79.2H9.6zM14.4,76.8H16.8V79.2H14.4zM16.8,76.8H19.2V79.2H16.8zM19.2,76.8H21.6V79.2H19.2zM24,76.8H26.4V79.2H24zM28.8,76.8H31.2V79.2H28.8zM31.2,76.8H33.6V79.2H31.2zM36,76.8H38.4V79.2H36zM40.8,76.8H43.2V79.2H40.8zM50.4,76.8H52.8V79.2H50.4zM57.6,76.8H60V79.2H57.6zM62.4,76.8H64.8V79.2H62.4zM67.2,76.8H69.6V79.2H67.2zM69.6,76.8H72V79.2H69.6zM72,76.8H74.4V79.2H72zM74.4,76.8H76.8V79.2H74.4zM76.8,76.8H79.2V79.2H76.8zM84,76.8H86.4V79.2H84zM9.6,79.2H12V81.6H9.6zM14.4,79.2H16.8V81.6H14.4zM16.8,79.2H19.2V81.6H16.8zM19.2,79.2H21.6V81.6H19.2zM24,79.2H26.4V81.6H24zM31.2,79.2H33.6V81.6H31.2zM43.2,79.2H45.6V81.6H43.2zM45.6,79.2H48V81.6H45.6zM48,79.2H50.4V81.6H48zM52.8,79.2H55.2V81.6H52.8zM55.2,79.2H57.6V81.6H55.2zM62.4,79.2H64.8V81.6H62.4zM64.8,79.2H67.2V81.6H64.8zM67.2,79.2H69.6V81.6H67.2zM76.8,79.2H79.2V81.6H76.8zM79.2,79.2H81.6V81.6H79.2zM9.6,81.6H12V84H9.6zM14.4,81.6H16.8V84H14.4zM16.8,81.6H19.2V84H16.8zM19.2,81.6H21.6V84H19.2zM24,81.6H26.4V84H24zM28.8,81.6H31.2V84H28.8zM31.2,81.6H33.6V84H31.2zM40.8,81.6H43.2V84H40.8zM48,81.6H50.4V84H48zM50.4,81.6H52.8V84H50.4zM62.4,81.6H64.8V84H62.4zM67.2,81.6H69.6V84H67.2zM69.6,81.6H72V84H69.6zM74.4,81.6H76.8V84H74.4zM76.8,81.6H79.2V84H76.8zM79.2,81.6H81.6V84H79.2zM86.4,81.6H88.8V84H86.4zM9.6,84H12V86.4H9.6zM24,84H26.4V86.4H24zM33.6,84H36V86.4H33.6zM38.4,84H40.8V86.4H38.4zM40.8,84H43.2V86.4H40.8zM52.8,84H55.2V86.4H52.8zM55.2,84H57.6V86.4H55.2zM57.6,84H60V86.4H57.6zM60,84H62.4V86.4H60zM64.8,84H67.2V86.4H64.8zM67.2,84H69.6V86.4H67.2zM69.6,84H72V86.4H69.6zM74.4,84H76.8V86.4H74.4zM84,84H86.4V86.4H84zM9.6,86.4H12V88.8H9.6zM12,86.4H14.4V88.8H12zM14.4,86.4H16.8V88.8H14.4zM16.8,86.4H19.2V88.8H16.8zM19.2,86.4H21.6V88.8H19.2zM21.6,86.4H24V88.8H21.6zM24,86.4H26.4V88.8H24zM31.2,86.4H33.6V88.8H31.2zM33.6,86.4H36V88.8H33.6zM38.4,86.4H40.8V88.8H38.4zM40.8,86.4H43.2V88.8H40.8zM43.2,86.4H45.6V88.8H43.2zM45.6,86.4H48V88.8H45.6zM50.4,86.4H52.8V88.8H50.4zM57.6,86.4H60V88.8H57.6zM62.4,86.4H64.8V88.8H62.4zM64.8,86.4H67.2V88.8H64.8zM67.2,86.4H69.6V88.8H67.2zM72,86.4H74.4V88.8H72zM74.4,86.4H76.8V88.8H74.4zM76.8,86.4H79.2V88.8H76.8zM84,86.4H86.4V88.8H84zM86.4,86.4H88.8V88.8H86.4z" id="qr-path" fill="#000000" fill-opacity="1" fill-rule="nonzero" stroke="none" /></svg>